<?xml version="1.0" encoding="utf-8" ?><svg xmlns="http://www.w3.org/2000/svg" xmlns:xlink="http://www.w3.org/1999/xlink" width="250" height="250" viewBox="0 0 250 250"><path fill="#EB4237" d="M22.557 73.6994C24.8798 69.3138 27.057 65.2807 29.8264 61.1536C44.3542 39.3561 65.9424 23.2237 90.963 15.4675C119.963 6.4513 151.353 9.26908 178.284 23.3062C183.878 26.3024 189.204 29.7746 194.203 33.6843C196.961 35.8416 199.251 38.3751 202.205 40.0336L179.916 62.2823C178.264 63.9342 170.213 72.2064 168.924 72.8541C167.743 72.7671 165.955 70.7427 164.885 69.8708C162.163 67.6616 159.252 65.6958 156.185 63.996C132.706 50.8053 101.801 54.8082 81.7716 72.4302C72.836 80.2917 64.3343 91.9765 60.9972 103.44C54.5778 97.9841 46.2235 91.9812 39.5125 86.7026C35.1971 83.3082 26.9507 76.5589 22.557 73.6994Z"/><path fill="#33A953" d="M22.6488 176.571C24.1023 175.173 27.0354 172.989 28.7189 171.671L39.8885 162.991C45.6179 158.551 55.1049 150.698 60.9582 146.916C74.1347 183.782 111.611 202.695 148.985 190.103C154.629 188.202 158.648 185.59 163.761 182.899C168.033 186.589 172.604 189.96 177.074 193.415L191.135 204.399C194.415 206.922 197.714 209.295 200.873 211.978C194.82 217.538 188.109 222.335 180.89 226.263C155.23 240.267 121.071 243.3 93.1277 235.059C67.2224 227.529 44.7956 211.118 29.7813 188.704C27.005 184.595 25.0386 180.959 22.6488 176.571Z"/><path fill="#4286F6" d="M124.985 104.035C133.905 104.553 146.573 104.148 155.788 104.135L203.844 104.134C213.48 104.135 223.543 103.98 233.131 104.248C238.267 136.978 233.492 170.323 213.745 197.667C211.302 201.05 204.223 209.616 200.873 211.978C197.714 209.295 194.415 206.922 191.135 204.399L177.074 193.415C172.604 189.96 168.033 186.589 163.761 182.899C173.218 175.52 178.981 169.713 183.75 158.105C184.782 155.594 185.914 150.465 186.769 148.545L145.726 148.523C141.11 148.523 129.161 148.239 124.993 148.735C125.271 144.109 125.228 138.859 125.152 134.212C124.987 124.253 125.435 113.959 124.985 104.035Z"/><path fill="#FBBC04" d="M22.557 73.6994C26.9507 76.5589 35.1971 83.3082 39.5125 86.7026C46.2235 91.9812 54.5778 97.9841 60.9972 103.44C55.9444 119.684 56.6004 130.798 60.9582 146.916C55.1049 150.698 45.6179 158.551 39.8885 162.991L28.7189 171.671C27.0354 172.989 24.1023 175.173 22.6488 176.571C19.8433 170.979 17.4786 165.177 15.5762 159.217C6.53812 130.905 9.04705 100.17 22.557 73.6994Z"/></svg>